Coordinates
version=1
nRows=11
nColumns=34
inDegrees=yes

Units are S.I. units (second, meters, Newtons, ...)
If the header above contains a line with 'inDegrees', this indicates whether rotational values are in degrees (yes) or radians (no).

endheader
time	pelvis_tilt	pelvis_list	pelvis_rotation	pelvis_tx	pelvis_ty	pelvis_tz	hip_flexion_r	hip_adduction_r	hip_rotation_r	knee_angle_r	ankle_angle_r	subtalar_angle_r	mtp_angle_r	hip_flexion_l	hip_adduction_l	hip_rotation_l	knee_angle_l	ankle_angle_l	subtalar_angle_l	mtp_angle_l	lumbar_extension	lumbar_bending	lumbar_rotation	arm_flex_r	arm_add_r	arm_rot_r	elbow_flex_r	pro_sup_r	arm_flex_l	arm_add_l	arm_rot_l	elbow_flex_l	pro_sup_l
7.633333	-24.121110	-0.842220	6.124267	0.669633	0.503554	-0.081646	108.434592	-15.788598	5.531442	105.512802	19.545418	-27.940478	0.000000	108.710053	-5.928423	2.141554	104.479834	24.201488	-15.247492	0.000000	-29.400184	3.420585	1.366175	137.623100	-7.009685	60.782735	17.527531	55.478586	131.952833	-0.132899	42.499312	17.573326	42.811104
7.650000	-24.174346	-1.062115	6.243822	0.669141	0.499232	-0.082039	109.006990	-16.063092	5.490597	106.100672	19.726592	-27.768125	0.000000	109.453038	-5.781843	2.386050	105.046647	24.199894	-15.004570	0.000000	-29.558353	3.710879	1.224801	138.140942	-6.896623	60.928244	17.349340	55.055569	132.409085	-0.118373	42.869627	17.126540	42.441683
7.666667	-24.220384	-1.267322	6.352267	0.668752	0.495031	-0.082274	109.565254	-16.294811	5.462853	106.690124	19.875659	-27.693587	0.000000	110.169854	-5.644271	2.635411	105.586142	24.227318	-14.741786	0.000000	-29.763824	3.988576	1.060227	138.769071	-6.740182	60.990024	17.170446	54.792586	132.916746	-0.172755	43.072117	16.753530	42.137378
7.683333	-24.251588	-1.450689	6.441547	0.668475	0.490929	-0.082385	110.107086	-16.458183	5.459761	107.283733	19.958158	-27.745545	0.000000	110.851402	-5.524979	2.884645	106.111414	24.244862	-14.507985	0.000000	-30.035714	4.236648	0.890316	139.496691	-6.538636	61.046034	16.956124	54.581976	133.499028	-0.266970	43.236210	16.402368	41.838787
7.700000	-24.263641	-1.609594	6.507509	0.668348	0.486859	-0.082421	110.634072	-16.548327	5.488946	107.886592	19.958862	-27.907303	0.000000	111.494058	-5.430074	3.128390	106.642050	24.231540	-14.328157	0.000000	-30.369672	4.447756	0.735513	140.280022	-6.300590	61.134100	16.699087	54.366751	134.132995	-0.373524	43.432893	16.055946	41.520758
7.716667	-24.260663	-1.748559	6.552508	0.668417	0.482722	-0.082427	111.157189	-16.582975	5.551601	108.506336	19.894847	-28.119726	0.000000	112.107038	-5.359788	3.364049	107.200024	24.192128	-14.194641	0.000000	-30.733737	4.625640	0.610299	141.046174	-6.047593	61.255555	16.433336	54.139896	134.756371	-0.471375	43.667569	15.734196	41.194611
7.733333	-24.250916	-1.877367	6.582410	0.668705	0.478437	-0.082446	111.689687	-16.592700	5.641742	109.149085	19.806582	-28.311043	0.000000	112.707373	-5.310603	3.591585	107.802584	24.145192	-14.082150	0.000000	-31.084417	4.780343	0.518305	141.718222	-5.805093	61.389112	16.212054	53.924371	135.296666	-0.548426	43.902939	15.475237	40.892430
7.750000	-24.237660	-2.006809	6.600411	0.669234	0.473989	-0.082502	112.233438	-16.606997	5.745044	109.816238	19.737742	-28.431332	0.000000	113.307899	-5.280898	3.815064	108.459046	24.110051	-13.966560	0.000000	-31.391267	4.922755	0.454935	142.247049	-5.583710	61.514810	16.060164	53.739255	135.707114	-0.600463	44.103374	15.297909	40.634294
7.766667	-24.218570	-2.144276	6.604639	0.670033	0.469424	-0.082575	112.777733	-16.646535	5.840981	110.505584	19.723284	-28.462198	0.000000	113.913821	-5.275220	4.042035	109.171539	24.100430	-13.833561	0.000000	-31.643709	5.060066	0.411761	142.620374	-5.373913	61.626270	15.956170	53.582685	135.978915	-0.629373	44.259416	15.189112	40.413316
7.783333	-24.191392	-2.291706	6.590535	0.671092	0.464818	-0.082629	113.308939	-16.722857	5.909289	111.213371	19.785405	-28.402414	0.000000	114.525863	-5.303347	4.278700	109.934030	24.121512	-13.678053	0.000000	-31.841844	5.194273	0.378797	142.850114	-5.156835	61.726043	15.851554	53.437566	136.128700	-0.641609	44.382675	15.120475	40.205633
7.800000	-24.157281	-2.446684	6.553192	0.672326	0.460225	-0.082653	113.820450	-16.839458	5.936852	111.935244	19.931400	-28.252943	0.000000	115.142286	-5.374981	4.526645	110.730475	24.171510	-13.500629	0.000000	-31.988107	5.323590	0.348029	142.961614	-4.914148	61.818210	15.693962	53.281157	136.185329	-0.644906	44.494089	15.064653	39.983116
